<?xml version="1.0" encoding="utf-8"?>
<!-- Generator: Adobe Illustrator 28.0.0, SVG Export Plug-In . SVG Version: 6.00 Build 0)  -->
<svg version="1.1" id="Layer_1" xmlns="http://www.w3.org/2000/svg" xmlns:xlink="http://www.w3.org/1999/xlink" x="0px" y="0px"
	 viewBox="0 0 24 24" style="enable-background:new 0 0 24 24;" xml:space="preserve">
<style type="text/css">
	.st0{fill:#F3F1E0;}
</style>
<g>
	<path class="st0" d="M7.8,5.4c0.5,0,1.1,0,1.6,0.2c0.4,0.1,0.9,0.3,1.2,0.5c0.3,0.3,0.6,0.6,0.8,1c0.2,0.5,0.3,1,0.3,1.5
		c0,0.6-0.1,1.1-0.4,1.6c-0.3,0.5-0.7,0.8-1.3,1.1c0.7,0.2,1.3,0.6,1.7,1.2c0.4,0.6,0.6,1.3,0.6,2.1c0,0.6-0.1,1.2-0.4,1.7
		c-0.2,0.5-0.6,0.9-1,1.2c-0.4,0.3-0.9,0.5-1.4,0.7C9,18.3,8.5,18.4,8,18.4H2V5.4H7.8z M7.4,10.6c0.4,0,0.8-0.1,1.2-0.4
		C8.8,10.1,8.9,10,9,9.7c0.1-0.2,0.1-0.4,0.1-0.6c0-0.3,0-0.5-0.1-0.7C8.9,8.2,8.7,8,8.5,7.9C8.4,7.8,8.2,7.7,7.9,7.7
		c-0.2,0-0.5-0.1-0.7-0.1H4.7v3L7.4,10.6L7.4,10.6z M7.6,16.2c0.3,0,0.5,0,0.8-0.1C8.6,16,8.8,15.9,9,15.8c0.2-0.1,0.3-0.3,0.4-0.5
		c0.1-0.3,0.2-0.6,0.2-0.8c0-0.3,0-0.5-0.1-0.8c-0.1-0.2-0.2-0.5-0.4-0.7c-0.4-0.3-0.9-0.4-1.4-0.4H4.7v3.6H7.6z"/>
</g>
<g>
	<path class="st0" d="M16.1,16.1c0.2,0.2,0.5,0.3,0.7,0.4c0.3,0.1,0.6,0.1,0.8,0.1c0.5,0,0.9-0.1,1.3-0.4c0.3-0.2,0.5-0.5,0.6-0.8
		h2.2c-0.2,1-0.8,1.8-1.6,2.4c-0.8,0.5-1.7,0.8-2.6,0.7c-0.7,0-1.3-0.1-1.9-0.4c-0.5-0.2-1-0.6-1.4-1c-0.4-0.5-0.7-1-0.9-1.6
		c-0.2-0.6-0.3-1.3-0.3-2c0-0.7,0.1-1.3,0.3-2c0.3-0.9,0.9-1.7,1.6-2.2c0.8-0.5,1.7-0.8,2.6-0.8c0.7,0,1.4,0.1,2,0.5
		c0.6,0.3,1,0.7,1.4,1.2c0.4,0.5,0.6,1.1,0.8,1.8c0.2,0.7,0.2,1.4,0.2,2.1h-6.4C15.5,14.9,15.7,15.6,16.1,16.1L16.1,16.1z M19,11.2
		c-0.2-0.2-0.4-0.3-0.6-0.4c-0.2-0.1-0.5-0.1-0.7-0.1c-0.3,0-0.7,0.1-1,0.2c-0.2,0.1-0.4,0.3-0.6,0.5c-0.2,0.2-0.3,0.4-0.3,0.7
		c-0.1,0.2-0.1,0.4-0.1,0.6h4C19.5,12.1,19.3,11.6,19,11.2L19,11.2z"/>
</g>
<g>
	<rect x="15" y="6.3" class="st0" width="5" height="1.3"/>
</g>
</svg>
