<?xml version="1.0" encoding="utf-8"?>
<!-- Generator: Adobe Illustrator 28.0.0, SVG Export Plug-In . SVG Version: 6.00 Build 0)  -->
<svg version="1.1" id="Layer_1" xmlns="http://www.w3.org/2000/svg" xmlns:xlink="http://www.w3.org/1999/xlink" x="0px" y="0px"
	 viewBox="0 0 24 24" style="enable-background:new 0 0 24 24;" xml:space="preserve">
<style type="text/css">
	.st0{fill-rule:evenodd;clip-rule:evenodd;fill:#F3F1E0;}
</style>
<g>
	<path class="st0" d="M12,2C6.5,2,2,6.5,2,12s4.5,10,10,10c5.5,0,10-4.5,10-10S17.5,2,12,2z M18.6,6.6c1.2,1.5,1.9,3.3,1.9,5.3
		c-0.3-0.1-3.1-0.6-5.9-0.3c-0.1-0.1-0.1-0.3-0.2-0.4c-0.2-0.4-0.4-0.8-0.6-1.2C17,8.7,18.4,6.8,18.6,6.6z M12,3.5
		c2.2,0,4.2,0.8,5.7,2.1c-0.2,0.2-1.4,1.9-4.5,3.1c-1.4-2.6-3-4.7-3.2-5C10.6,3.6,11.3,3.5,12,3.5z M8.4,4.3
		c0.2,0.3,1.7,2.4,3.2,4.9c-4,1.1-7.5,1-7.9,1C4.2,7.6,6,5.4,8.4,4.3z M3.5,12c0-0.1,0-0.2,0-0.3c0.4,0,4.5,0.1,8.8-1.2
		c0.2,0.5,0.5,1,0.7,1.5c-0.1,0-0.2,0.1-0.3,0.1c-4.4,1.4-6.7,5.3-6.9,5.6C4.3,16.2,3.5,14.2,3.5,12z M12,20.5c-2,0-3.8-0.7-5.2-1.8
		c0.2-0.3,1.9-3.7,6.7-5.3c0,0,0,0,0.1,0c1.2,3.1,1.7,5.7,1.8,6.5C14.3,20.3,13.2,20.5,12,20.5z M16.8,19.1c-0.1-0.5-0.5-3-1.7-6.1
		c2.7-0.4,5,0.3,5.3,0.4C20,15.7,18.7,17.8,16.8,19.1z"/>
</g>
</svg>
