<?xml version="1.0" encoding="utf-8"?>
<!-- Generator: Adobe Illustrator 28.0.0, SVG Export Plug-In . SVG Version: 6.00 Build 0)  -->
<svg version="1.1" id="Layer_1" xmlns="http://www.w3.org/2000/svg" xmlns:xlink="http://www.w3.org/1999/xlink" x="0px" y="0px"
	 viewBox="0 0 24 24" style="enable-background:new 0 0 24 24;" xml:space="preserve">
<style type="text/css">
	.st0{fill-rule:evenodd;clip-rule:evenodd;fill:#F3F1E0;}
</style>
<g>
	<path class="st0" d="M12,2.2c-5.5,0-10,4.5-10,10c0,4.4,2.9,8.2,6.8,9.5c0.5,0.1,0.7-0.2,0.7-0.5c0-0.2,0-1,0-1.9
		c-2.5,0.5-3.2-0.6-3.4-1.2c-0.1-0.3-0.6-1.2-1-1.4c-0.3-0.2-0.8-0.6,0-0.7c0.8,0,1.3,0.7,1.5,1C7.6,18.7,9,18.3,9.6,18
		c0.1-0.6,0.4-1.1,0.6-1.3c-2.2-0.2-4.5-1.1-4.5-4.9c0-1.1,0.4-2,1-2.7C6.6,8.8,6.2,7.8,6.8,6.4c0,0,0.8-0.3,2.7,1
		c0.8-0.2,1.7-0.3,2.5-0.3c0.9,0,1.7,0.1,2.5,0.3c1.9-1.3,2.8-1,2.8-1c0.6,1.4,0.2,2.4,0.1,2.6c0.6,0.7,1,1.6,1,2.7
		c0,3.8-2.3,4.7-4.6,4.9c0.4,0.3,0.7,0.9,0.7,1.8c0,1.3,0,2.4,0,2.8c0,0.3,0.2,0.6,0.7,0.5c2-0.7,3.7-1.9,4.9-3.6
		c1.2-1.7,1.9-3.7,1.9-5.8C22,6.7,17.5,2.2,12,2.2z"/>
</g>
</svg>
