<?xml version="1.0" encoding="utf-8"?>
<!-- Generator: Adobe Illustrator 28.0.0, SVG Export Plug-In . SVG Version: 6.00 Build 0)  -->
<svg version="1.1" id="Layer_1" xmlns="http://www.w3.org/2000/svg" xmlns:xlink="http://www.w3.org/1999/xlink" x="0px" y="0px"
	 viewBox="0 0 24 24" style="enable-background:new 0 0 24 24;" xml:space="preserve">
<style type="text/css">
	.st0{fill:#F3F1E0;}
</style>
<g>
	<path class="st0" d="M21,4.3v15.4c0,0.4-0.1,0.7-0.4,0.9C20.4,20.9,20,21,19.7,21H4.3c-0.4,0-0.7-0.1-0.9-0.4C3.1,20.4,3,20,3,19.7
		V4.3C3,4,3.1,3.6,3.4,3.4S4,3,4.3,3h15.4c0.4,0,0.7,0.1,0.9,0.4C20.9,3.6,21,4,21,4.3L21,4.3z M8.3,9.9H5.6v8.5h2.6V9.9z M8.5,7
		c0-0.2,0-0.4-0.1-0.6C8.3,6.2,8.2,6,8.1,5.9C8,5.7,7.8,5.6,7.6,5.6C7.4,5.5,7.2,5.4,7,5.4h0c-0.4,0-0.8,0.2-1.1,0.4
		C5.6,6.2,5.4,6.6,5.4,7c0,0.4,0.2,0.8,0.4,1.1C6.2,8.3,6.6,8.5,7,8.5l0,0c0.2,0,0.4,0,0.6-0.1c0.2-0.1,0.4-0.2,0.5-0.3
		c0.1-0.1,0.3-0.3,0.3-0.5C8.5,7.4,8.5,7.2,8.5,7L8.5,7z M18.4,13.2c0-2.5-1.6-3.5-3.2-3.5c-0.5,0-1.1,0.1-1.5,0.3
		c-0.5,0.2-0.9,0.6-1.2,1h-0.1V9.9H9.9v8.5h2.6v-4.5c0-0.5,0.1-0.9,0.4-1.3c0.3-0.4,0.7-0.6,1.2-0.6h0.1c0.8,0,1.5,0.5,1.5,1.9v4.5
		h2.6L18.4,13.2z"/>
</g>
</svg>
